<?xml version="1.0" encoding="UTF-8"?>
<!DOCTYPE svg PUBLIC "-//W3C//DTD SVG 1.1//EN" "http://www.w3.org/Graphics/SVG/1.1/DTD/svg11.dtd">
<!-- Creator: CorelDRAW X6 -->
<svg xmlns="http://www.w3.org/2000/svg" xml:space="preserve" width="210mm" height="297mm" version="1.1" style="shape-rendering:geometricPrecision; text-rendering:geometricPrecision; image-rendering:optimizeQuality; fill-rule:evenodd; clip-rule:evenodd"
viewBox="0 0 21000 29700"
 xmlns:xlink="http://www.w3.org/1999/xlink">
 <defs>
  <style type="text/css">
   <![CDATA[
    .str0 {stroke:#2B2A29;stroke-width:20}
    .fil2 {fill:#2B2A29}
    .fil0 {fill:black}
    .fil1 {fill:#FEFEFE}
   ]]>
  </style>
 </defs>
 <g id="Слой_x0020_1">
  <metadata id="CorelCorpID_0Corel-Layer"/>
  <path class="fil0" d="M13111 15695c-18,-354 -42,-1942 44,-2173 171,-460 752,-920 1400,-651 1273,529 585,2524 -884,1936 -23,25 -17,11 -53,60l-105 178c-112,195 -315,481 -377,664 693,300 1422,425 2094,-5 245,-182 370,-256 566,-492 465,-558 632,-1275 374,-2051 -88,-264 -314,-625 -497,-808 -890,-890 -2505,-880 -3352,444 -505,789 -331,2050 473,2682 131,103 155,140 316,218z"/>
  <path class="fil1" d="M14069 13608c323,-156 527,363 209,507 -297,134 -600,-318 -209,-507zm-957 2087l17 35c61,-182 272,-492 385,-686l105 -178c36,-48 30,-35 53,-60 1469,589 2156,-1407 884,-1936 -648,-269 -1229,191 -1400,651 -86,231 -62,1819 -44,2173z"/>
  <circle class="fil2 str0" cx="14160" cy="13859" r="392"/>
 </g>
</svg>
